<svg width="74" height="22" viewBox="0 0 74 22" fill="none" xmlns="http://www.w3.org/2000/svg">
<g filter="url(#filter0_ddd)">
<path d="M14.5 1.16675H12.75C11.9764 1.16675 11.2346 1.47404 10.6876 2.02102C10.1406 2.568 9.83333 3.30987 9.83333 4.08342V5.83342H8.08333V8.16675H9.83333V12.8334H12.1667V8.16675H13.9167L14.5 5.83342H12.1667V4.08342C12.1667 3.92871 12.2281 3.78033 12.3375 3.67094C12.4469 3.56154 12.5953 3.50008 12.75 3.50008H14.5V1.16675Z" fill="#101010"/>
<path d="M39.3333 4.66675C40.2616 4.66675 41.1518 5.0355 41.8082 5.69187C42.4646 6.34825 42.8333 7.23849 42.8333 8.16675V12.2501H40.5V8.16675C40.5 7.85733 40.3771 7.56058 40.1583 7.34179C39.9395 7.123 39.6428 7.00008 39.3333 7.00008C39.0239 7.00008 38.7272 7.123 38.5084 7.34179C38.2896 7.56058 38.1667 7.85733 38.1667 8.16675V12.2501H35.8333V8.16675C35.8333 7.23849 36.2021 6.34825 36.8585 5.69187C37.5148 5.0355 38.4051 4.66675 39.3333 4.66675Z" fill="#101010"/>
<path d="M31.1667 5.25H33.5V12.25H31.1667V5.25Z" fill="#101010"/>
<path d="M32.3333 3.50008C32.9777 3.50008 33.5 2.97775 33.5 2.33341C33.5 1.68908 32.9777 1.16675 32.3333 1.16675C31.689 1.16675 31.1667 1.68908 31.1667 2.33341C31.1667 2.97775 31.689 3.50008 32.3333 3.50008Z" fill="#101010"/>
<path d="M69.4167 1.75001C68.8581 2.14403 68.2396 2.4454 67.585 2.64251C67.2337 2.23855 66.7668 1.95224 66.2474 1.8223C65.7281 1.69235 65.1814 1.72504 64.6812 1.91594C64.1811 2.10684 63.7516 2.44674 63.4509 2.88967C63.1502 3.33261 62.9928 3.8572 63 4.39251V4.97584C61.9749 5.00242 60.9591 4.77506 60.0431 4.31402C59.1271 3.85297 58.3394 3.17254 57.75 2.33334C57.75 2.33334 55.4167 7.58334 60.6667 9.91667C59.4653 10.7322 58.0342 11.141 56.5833 11.0833C61.8333 14 68.25 11.0833 68.25 4.37501C68.2495 4.21252 68.2338 4.05044 68.2033 3.89084C68.7987 3.30371 69.2188 2.56242 69.4167 1.75001Z" fill="#101010"/>
</g>
<defs>
<filter id="filter0_ddd" x="0" y="0" width="74" height="22" filterUnits="userSpaceOnUse" color-interpolation-filters="sRGB">
<feFlood flood-opacity="0" result="BackgroundImageFix"/>
<feColorMatrix in="SourceAlpha" type="matrix" values="0 0 0 0 0 0 0 0 0 0 0 0 0 0 0 0 0 0 127 0"/>
<feOffset dy="4"/>
<feGaussianBlur stdDeviation="2"/>
<feColorMatrix type="matrix" values="0 0 0 0 0 0 0 0 0 0 0 0 0 0 0 0 0 0 0.25 0"/>
<feBlend mode="normal" in2="BackgroundImageFix" result="effect1_dropShadow"/>
<feColorMatrix in="SourceAlpha" type="matrix" values="0 0 0 0 0 0 0 0 0 0 0 0 0 0 0 0 0 0 127 0"/>
<feOffset dy="4"/>
<feGaussianBlur stdDeviation="2"/>
<feColorMatrix type="matrix" values="0 0 0 0 0 0 0 0 0 0 0 0 0 0 0 0 0 0 0.25 0"/>
<feBlend mode="normal" in2="effect1_dropShadow" result="effect2_dropShadow"/>
<feColorMatrix in="SourceAlpha" type="matrix" values="0 0 0 0 0 0 0 0 0 0 0 0 0 0 0 0 0 0 127 0"/>
<feOffset dy="4"/>
<feGaussianBlur stdDeviation="2"/>
<feColorMatrix type="matrix" values="0 0 0 0 0 0 0 0 0 0 0 0 0 0 0 0 0 0 0.25 0"/>
<feBlend mode="normal" in2="effect2_dropShadow" result="effect3_dropShadow"/>
<feBlend mode="normal" in="SourceGraphic" in2="effect3_dropShadow" result="shape"/>
</filter>
</defs>
</svg>
